<?xml version="1.0" encoding="utf-8"?>
<!-- Generator: Adobe Illustrator 25.2.3, SVG Export Plug-In . SVG Version: 6.00 Build 0)  -->
<svg version="1.1" id="레이어_1" xmlns="http://www.w3.org/2000/svg" xmlns:xlink="http://www.w3.org/1999/xlink" x="0px"
	 y="0px" viewBox="0 0 100 100" style="enable-background:new 0 0 100 100;" xml:space="preserve">
<style type="text/css">
	.st0{fill:#FFFFFF;}
	.st1{fill:#E2E2E0;}
	.st2{fill:#939393;}
</style>
<path class="st0" d="M93.1,85.5H26.5c-3.7,0-6.7-3-6.7-6.7V34.1c0-3.7,3-6.7,6.7-6.7h66.6c3.7,0,6.7,3,6.7,6.7v44.7
	C99.8,82.5,96.8,85.5,93.1,85.5z"/>
<path class="st1" d="M73.5,1.2H6.9c-3.7,0-6.7,3-6.7,6.7v9.8v34.9v16.6c0,2.2,2.7,3.3,4.3,1.7l9.4-9.9v-1.7V28.1
	c0-0.7,0.1-1.3,0.3-1.9c0.8-2.7,3.4-4.8,6.4-4.8h59.6V7.9C80.2,4.2,77.2,1.2,73.5,1.2z"/>
<path class="st0" d="M71.2,72.3L95.5,98c1.5,1.6,4.3,0.5,4.3-1.7V44.9c0-2.2-2.7-3.3-4.3-1.7L71.2,68.9
	C70.3,69.9,70.3,71.3,71.2,72.3z"/>
<g>
	<path class="st2" d="M84.5,52.9H35.1c-2,0-3.6-1.6-3.6-3.6v-0.4c0-2,1.6-3.6,3.6-3.6h49.4c2,0,3.6,1.6,3.6,3.6v0.4
		C88.1,51.3,86.5,52.9,84.5,52.9z"/>
	<path class="st2" d="M84.5,67.6H35.1c-2,0-3.6-1.6-3.6-3.6v-0.4c0-2,1.6-3.6,3.6-3.6h49.4c2,0,3.6,1.6,3.6,3.6V64
		C88.1,66,86.5,67.6,84.5,67.6z"/>
</g>
</svg>
